<svg width="1089" height="1089" viewBox="0 0 1089 1089" fill="none" xmlns="http://www.w3.org/2000/svg">
<g clip-path="url(#clip0_1066_9)">
<path d="M65.5251 46.9685L668.102 2.46107C742.121 -3.8878 761.135 0.391966 807.679 34.2272L1000.03 169.731C1031.75 193.036 1042.31 199.385 1042.31 224.759V967.925C1042.31 1014.5 1025.4 1042.05 966.193 1046.26L266.446 1088.64C222.014 1090.74 200.855 1084.39 177.583 1054.74L35.937 870.546C10.5306 836.646 0 811.272 0 781.608V121.02C0 82.9382 16.9122 51.1829 65.5251 46.9685Z" fill="black"/>
<g filter="url(#filter0_d_1066_9)">
<path fill-rule="evenodd" clip-rule="evenodd" d="M668.102 2.47196L65.5251 46.9794C16.9122 51.1829 0 82.9491 0 121.021V781.608C0 811.261 10.5306 836.635 35.937 870.547L177.583 1054.73C200.855 1084.38 222.014 1090.74 266.446 1088.63L966.204 1046.27C1025.37 1042.05 1042.33 1014.5 1042.33 967.936V224.77C1042.33 200.703 1032.82 193.766 1004.83 173.227L807.679 34.2272C761.146 0.391966 742.121 -3.8878 668.102 2.46107V2.47196ZM282.269 212.605C225.129 216.45 212.17 217.321 179.718 190.934L97.215 125.311C88.8297 116.817 93.0442 106.221 114.171 104.108L693.443 61.7789C742.088 57.5318 767.418 74.4875 786.443 89.2979L885.793 161.281C890.04 163.426 900.603 176.091 887.894 176.091L289.674 212.104L282.269 212.605ZM215.655 961.587V330.697C215.655 303.145 224.116 290.436 249.446 288.302L936.54 248.074C959.845 245.972 970.375 260.783 970.375 288.291V914.978C970.375 942.529 966.128 965.834 928.089 967.936L270.584 1006.05C232.545 1008.15 215.666 995.488 215.666 961.587H215.655ZM864.699 364.521C868.913 383.578 864.699 402.636 845.641 404.814L813.951 411.097V876.895C786.432 891.706 761.102 900.167 739.932 900.167C706.097 900.167 697.646 889.571 672.305 857.838L465.068 531.791V847.242L530.626 862.085C530.626 862.085 530.626 900.2 477.733 900.2L331.916 908.662C327.669 900.167 331.916 879.008 346.694 874.794L384.776 864.23V447.143L331.927 442.864C327.68 423.806 338.243 396.287 367.864 394.153L524.321 383.622L739.943 713.883V421.704L684.981 415.388C680.734 392.051 697.646 375.095 718.773 373.026L864.699 364.521Z" fill="#E0E0E0"/>
<path d="M676.102 9.82581C708.809 7.22395 729.202 7.16151 746.425 11.0758C764.619 15.2109 779.933 23.9443 802.974 40.6979L803.021 40.7321L803.069 40.7653L1000.17 179.727C1014.49 190.239 1022.79 196.402 1027.84 202.687C1032.29 208.225 1034.33 214.05 1034.33 224.769V967.936C1034.33 990.474 1030.18 1006.63 1020.44 1017.7C1010.78 1028.69 994.22 1036.24 965.686 1038.28L266.039 1080.64C244.109 1081.68 229.032 1080.54 216.829 1076.08C205.268 1071.85 195.542 1064.35 184.908 1051.09L183.877 1049.79L42.3184 865.721C17.4875 832.572 8.00003 808.869 8 781.608V121.02C8.00005 103.049 12.0054 87.5603 20.8438 76.2164C29.5148 65.0873 43.6486 56.9063 66.1865 54.9518L668.69 10.4498L676.102 9.90295V9.82581ZM968.425 252.057C960.82 242.625 949.504 238.918 936.013 240.09L248.979 280.315L248.877 280.322L248.774 280.33C234.943 281.495 223.899 285.716 216.703 295.099C209.777 304.132 207.654 316.422 207.654 330.697V969.587H207.988C209.204 984.011 213.963 995.69 223.879 1003.58C235.203 1012.59 251.424 1015.12 271.025 1014.04L271.036 1014.04H271.047L928.552 975.922C949.286 974.772 962.73 967.617 970.326 955.168C977.426 943.531 978.375 928.732 978.375 914.978V288.291C978.375 273.802 975.653 261.023 968.425 252.057ZM522.626 862.041C522.626 862.034 522.626 862.028 522.626 862.024C522.626 862.02 522.627 862.017 522.627 862.015C522.627 862.019 522.626 862.028 522.626 862.041ZM753.865 60.903C737.886 54.8972 718.206 51.5961 692.817 53.8033L113.588 96.1295L113.481 96.1373L113.375 96.1481C102.116 97.2739 92.6581 100.837 87.9668 107.883C85.4587 111.651 84.638 116.011 85.5176 120.314C86.3613 124.442 88.6525 128.025 91.5215 130.931L91.8594 131.273L92.2354 131.572L174.737 197.195C191.399 210.735 203.988 218.04 220.317 220.98C235.96 223.797 254.665 222.481 282.806 220.588H282.809L290.171 220.089L888.215 184.086C892.089 184.036 897.473 183.061 900.39 178.186C903.257 173.394 901.521 168.429 900.467 166.141C899.205 163.405 897.3 160.92 895.55 159.044C894.058 157.445 892.125 155.694 890.097 154.519L791.252 82.9039C781.562 75.3653 769.741 66.8699 753.865 60.903ZM747.942 414.571L740.856 413.756L692.339 408.18C692.45 393.328 703.986 382.563 719.433 381.001L857.961 372.926C858.542 378.854 858.008 384.102 856.449 388.077C854.548 392.925 851.125 396.135 844.732 396.866L844.407 396.903L844.085 396.966L812.396 403.251L805.951 404.528V872.07C780.64 885.185 758.174 892.168 739.932 892.168C723.933 892.168 715.184 889.68 707.502 884.336C699.227 878.579 691.623 869.206 678.823 853.179L471.82 527.5L457.068 504.292V853.633L463.302 855.045L521.475 868.214C520.715 870.714 519.472 873.655 517.441 876.582C512.552 883.628 501.983 892.2 477.733 892.2H477.502L477.27 892.214L338.358 900.274C338.402 897.95 338.844 895.305 339.731 892.737C341.62 887.274 344.916 883.623 348.881 882.489L386.915 871.939L392.776 870.313V439.765L385.422 439.17L339.042 435.413C338.856 429.116 340.441 422.201 344.024 416.328C348.554 408.902 356.321 403.013 368.409 402.133L520.183 391.919L733.244 718.256L747.942 740.77V414.571Z" stroke="black" stroke-width="16"/>
</g>
</g>
<defs>
<filter id="filter0_d_1066_9" x="-27.6" y="-7.61306" width="1089.53" height="1136.21" filterUnits="userSpaceOnUse" color-interpolation-filters="sRGB">
<feFlood flood-opacity="0" result="BackgroundImageFix"/>
<feColorMatrix in="SourceAlpha" type="matrix" values="0 0 0 0 0 0 0 0 0 0 0 0 0 0 0 0 0 0 127 0" result="hardAlpha"/>
<feOffset dx="-4" dy="16"/>
<feGaussianBlur stdDeviation="11.8"/>
<feComposite in2="hardAlpha" operator="out"/>
<feColorMatrix type="matrix" values="0 0 0 0 0 0 0 0 0 0 0 0 0 0 0 0 0 0 0.25 0"/>
<feBlend mode="normal" in2="BackgroundImageFix" result="effect1_dropShadow_1066_9"/>
<feBlend mode="normal" in="SourceGraphic" in2="effect1_dropShadow_1066_9" result="shape"/>
</filter>
<clipPath id="clip0_1066_9">
<rect width="1089" height="1089" fill="white"/>
</clipPath>
</defs>
</svg>
